<svg width="642" height="225" viewBox="0 0 642 225" fill="none" xmlns="http://www.w3.org/2000/svg">
<path d="M8.60156 128V36.7713H25.8047V74.4357H59.6896V36.7713H76.8927V128H59.6896V90.0749H25.8047V128H8.60156ZM124.104 129.825C117.674 129.825 111.983 128.478 107.031 125.784C102.165 123.004 98.3423 119.138 95.562 114.185C92.8686 109.146 91.5219 103.238 91.5219 96.461V94.897C91.5219 88.12 92.8686 82.2553 95.562 77.3029C98.2554 72.2636 102.035 68.3973 106.9 65.7039C111.766 62.9236 117.413 61.5334 123.843 61.5334C130.185 61.5334 135.703 62.967 140.394 65.8342C145.086 68.6145 148.735 72.5243 151.342 77.5636C153.948 82.516 155.252 88.2938 155.252 94.897V100.501H108.204C108.377 104.932 110.028 108.538 113.156 111.318C116.284 114.098 120.107 115.489 124.625 115.489C129.23 115.489 132.618 114.489 134.79 112.491C136.962 110.493 138.613 108.277 139.743 105.844L153.166 112.882C151.95 115.141 150.169 117.617 147.823 120.311C145.564 122.917 142.523 125.176 138.7 127.088C134.877 128.912 130.012 129.825 124.104 129.825ZM108.334 88.2504H138.57C138.222 84.5143 136.702 81.5168 134.008 79.2578C131.402 76.9988 127.97 75.8693 123.713 75.8693C119.281 75.8693 115.763 76.9988 113.156 79.2578C110.55 81.5168 108.942 84.5143 108.334 88.2504ZM169.868 128V36.7713H186.289V128H169.868ZM204.486 128V36.7713H220.907V128H204.486ZM269.861 129.825C263.431 129.825 257.653 128.521 252.527 125.915C247.401 123.308 243.361 119.529 240.407 114.576C237.453 109.624 235.976 103.672 235.976 96.7216V94.6364C235.976 87.6856 237.453 81.734 240.407 76.7816C243.361 71.8292 247.401 68.0497 252.527 65.4432C257.653 62.8367 263.431 61.5334 269.861 61.5334C276.29 61.5334 282.068 62.8367 287.194 65.4432C292.32 68.0497 296.36 71.8292 299.314 76.7816C302.269 81.734 303.746 87.6856 303.746 94.6364V96.7216C303.746 103.672 302.269 109.624 299.314 114.576C296.36 119.529 292.32 123.308 287.194 125.915C282.068 128.521 276.29 129.825 269.861 129.825ZM269.861 115.228C274.9 115.228 279.07 113.621 282.372 110.406C285.674 107.104 287.324 102.413 287.324 96.3306V95.0274C287.324 88.9454 285.674 84.2971 282.372 81.0824C279.157 77.7808 274.987 76.13 269.861 76.13C264.821 76.13 260.651 77.7808 257.349 81.0824C254.048 84.2971 252.397 88.9454 252.397 95.0274V96.3306C252.397 102.413 254.048 107.104 257.349 110.406C260.651 113.621 264.821 115.228 269.861 115.228ZM351.473 128V36.7713H368.676V73.0022H371.022L400.606 36.7713H422.631L384.576 81.734L423.934 128H401.257L371.022 90.9872H368.676V128H351.473ZM433.575 128V63.358H449.997V128H433.575ZM441.786 55.799C438.832 55.799 436.312 54.8433 434.227 52.9318C432.229 51.0204 431.23 48.5007 431.23 45.3729C431.23 42.2451 432.229 39.7254 434.227 37.814C436.312 35.9025 438.832 34.9468 441.786 34.9468C444.827 34.9468 447.347 35.9025 449.345 37.814C451.343 39.7254 452.342 42.2451 452.342 45.3729C452.342 48.5007 451.343 51.0204 449.345 52.9318C447.347 54.8433 444.827 55.799 441.786 55.799ZM492.955 128C488.698 128 485.223 126.697 482.529 124.09C479.923 121.397 478.62 117.835 478.62 113.403V76.912H462.459V63.358H478.62V43.2877H495.041V63.358H508.855V76.912H495.041V110.536C495.041 113.143 496.257 114.446 498.69 114.446H511.201V128H492.955ZM535.442 128C531.185 128 527.709 126.697 525.016 124.09C522.409 121.397 521.106 117.835 521.106 113.403V76.912H508.855V63.358H521.106V43.2877H537.527V63.358H555.252V76.912H537.527V110.536C537.527 113.143 538.744 114.446 541.176 114.446H553.688V128H535.442ZM577.176 154.065V139.729H612.364C614.797 139.729 616.013 138.426 616.013 135.82V119.529H613.667C612.972 121.006 611.886 122.483 610.409 123.96C608.932 125.437 606.934 126.653 604.414 127.609C601.895 128.565 598.68 129.043 594.77 129.043C589.731 129.043 585.3 127.913 581.477 125.654C577.741 123.308 574.83 120.094 572.745 116.01C570.66 111.926 569.617 107.235 569.617 101.935V63.358H586.038V100.631C586.038 105.497 587.211 109.146 589.557 111.579C591.99 114.012 595.422 115.228 599.853 115.228C604.892 115.228 608.802 113.577 611.582 110.276C614.363 106.887 615.753 102.195 615.753 96.2003V63.358H632.174V139.469C632.174 143.9 630.871 147.419 628.264 150.025C625.658 152.719 622.182 154.065 617.838 154.065H577.176Z" fill="white"/>
<path d="M146.08 217V198.8H157.078V200.776H148.264V206.886H156.376V208.862H148.264V217H146.08ZM165.871 217.364C164.588 217.364 163.461 217.095 162.491 216.558C161.52 216.003 160.766 215.232 160.229 214.244C159.691 213.256 159.423 212.112 159.423 210.812V210.5C159.423 209.183 159.691 208.03 160.229 207.042C160.766 206.054 161.511 205.291 162.465 204.754C163.418 204.199 164.51 203.922 165.741 203.922C166.937 203.922 167.994 204.182 168.913 204.702C169.831 205.205 170.551 205.933 171.071 206.886C171.591 207.839 171.851 208.957 171.851 210.24V211.176H161.477C161.529 212.545 161.971 213.62 162.803 214.4C163.635 215.163 164.675 215.544 165.923 215.544C167.015 215.544 167.855 215.293 168.445 214.79C169.034 214.287 169.485 213.689 169.797 212.996L171.565 213.854C171.305 214.391 170.941 214.929 170.473 215.466C170.022 216.003 169.424 216.454 168.679 216.818C167.951 217.182 167.015 217.364 165.871 217.364ZM161.503 209.486H169.771C169.701 208.307 169.294 207.389 168.549 206.73C167.821 206.071 166.885 205.742 165.741 205.742C164.579 205.742 163.626 206.071 162.881 206.73C162.135 207.389 161.676 208.307 161.503 209.486ZM181.257 217.364C179.975 217.364 178.848 217.095 177.877 216.558C176.907 216.003 176.153 215.232 175.615 214.244C175.078 213.256 174.809 212.112 174.809 210.812V210.5C174.809 209.183 175.078 208.03 175.615 207.042C176.153 206.054 176.898 205.291 177.851 204.754C178.805 204.199 179.897 203.922 181.127 203.922C182.323 203.922 183.381 204.182 184.299 204.702C185.218 205.205 185.937 205.933 186.457 206.886C186.977 207.839 187.237 208.957 187.237 210.24V211.176H176.863C176.915 212.545 177.357 213.62 178.189 214.4C179.021 215.163 180.061 215.544 181.309 215.544C182.401 215.544 183.242 215.293 183.831 214.79C184.421 214.287 184.871 213.689 185.183 212.996L186.951 213.854C186.691 214.391 186.327 214.929 185.859 215.466C185.409 216.003 184.811 216.454 184.065 216.818C183.337 217.182 182.401 217.364 181.257 217.364ZM176.889 209.486H185.157C185.088 208.307 184.681 207.389 183.935 206.73C183.207 206.071 182.271 205.742 181.127 205.742C179.966 205.742 179.013 206.071 178.267 206.73C177.522 207.389 177.063 208.307 176.889 209.486ZM196.202 217.364C195.11 217.364 194.105 217.104 193.186 216.584C192.267 216.064 191.539 215.31 191.002 214.322C190.465 213.334 190.196 212.164 190.196 210.812V210.474C190.196 209.122 190.465 207.961 191.002 206.99C191.539 206.002 192.259 205.248 193.16 204.728C194.079 204.191 195.093 203.922 196.202 203.922C197.086 203.922 197.831 204.043 198.438 204.286C199.062 204.511 199.565 204.806 199.946 205.17C200.327 205.517 200.622 205.889 200.83 206.288H201.194V198.8H203.248V217H201.246V214.894H200.882C200.535 215.535 199.998 216.107 199.27 216.61C198.542 217.113 197.519 217.364 196.202 217.364ZM196.748 215.544C198.065 215.544 199.131 215.128 199.946 214.296C200.778 213.447 201.194 212.268 201.194 210.76V210.526C201.194 209.018 200.778 207.848 199.946 207.016C199.131 206.167 198.065 205.742 196.748 205.742C195.448 205.742 194.373 206.167 193.524 207.016C192.692 207.848 192.276 209.018 192.276 210.526V210.76C192.276 212.268 192.692 213.447 193.524 214.296C194.373 215.128 195.448 215.544 196.748 215.544ZM214.23 217V198.8H216.284V206.314H216.648C216.822 205.933 217.082 205.577 217.428 205.248C217.792 204.901 218.252 204.615 218.806 204.39C219.378 204.165 220.098 204.052 220.964 204.052C221.918 204.052 222.767 204.26 223.512 204.676C224.275 205.075 224.882 205.664 225.332 206.444C225.783 207.207 226.008 208.16 226.008 209.304V217H223.954V209.46C223.954 208.195 223.634 207.276 222.992 206.704C222.368 206.132 221.519 205.846 220.444 205.846C219.214 205.846 218.208 206.245 217.428 207.042C216.666 207.839 216.284 209.027 216.284 210.604V217H214.23ZM236 217.364C234.717 217.364 233.59 217.095 232.62 216.558C231.649 216.003 230.895 215.232 230.358 214.244C229.82 213.256 229.552 212.112 229.552 210.812V210.5C229.552 209.183 229.82 208.03 230.358 207.042C230.895 206.054 231.64 205.291 232.594 204.754C233.547 204.199 234.639 203.922 235.87 203.922C237.066 203.922 238.123 204.182 239.042 204.702C239.96 205.205 240.68 205.933 241.2 206.886C241.72 207.839 241.98 208.957 241.98 210.24V211.176H231.606C231.658 212.545 232.1 213.62 232.932 214.4C233.764 215.163 234.804 215.544 236.052 215.544C237.144 215.544 237.984 215.293 238.574 214.79C239.163 214.287 239.614 213.689 239.926 212.996L241.694 213.854C241.434 214.391 241.07 214.929 240.602 215.466C240.151 216.003 239.553 216.454 238.808 216.818C238.08 217.182 237.144 217.364 236 217.364ZM231.632 209.486H239.9C239.83 208.307 239.423 207.389 238.678 206.73C237.95 206.071 237.014 205.742 235.87 205.742C234.708 205.742 233.755 206.071 233.01 206.73C232.264 207.389 231.805 208.307 231.632 209.486ZM245.562 217V204.286H247.564V205.846H247.928C248.154 205.291 248.5 204.884 248.968 204.624C249.436 204.364 250.052 204.234 250.814 204.234H252.322V206.106H250.684C249.766 206.106 249.02 206.366 248.448 206.886C247.894 207.389 247.616 208.177 247.616 209.252V217H245.562ZM263.809 217L261.261 204.286H263.341L265.447 215.622H265.811L268.593 204.286H271.999L274.781 215.622H275.145L277.251 204.286H279.331L276.783 217H273.273L270.465 205.664H270.127L267.319 217H263.809ZM282.861 217V198.8H284.915V206.314H285.279C285.452 205.933 285.712 205.577 286.059 205.248C286.423 204.901 286.882 204.615 287.437 204.39C288.009 204.165 288.728 204.052 289.595 204.052C290.548 204.052 291.398 204.26 292.143 204.676C292.906 205.075 293.512 205.664 293.963 206.444C294.414 207.207 294.639 208.16 294.639 209.304V217H292.585V209.46C292.585 208.195 292.264 207.276 291.623 206.704C290.999 206.132 290.15 205.846 289.075 205.846C287.844 205.846 286.839 206.245 286.059 207.042C285.296 207.839 284.915 209.027 284.915 210.604V217H282.861ZM304.63 217.364C303.348 217.364 302.221 217.095 301.25 216.558C300.28 216.003 299.526 215.232 298.988 214.244C298.451 213.256 298.182 212.112 298.182 210.812V210.5C298.182 209.183 298.451 208.03 298.988 207.042C299.526 206.054 300.271 205.291 301.224 204.754C302.178 204.199 303.27 203.922 304.5 203.922C305.696 203.922 306.754 204.182 307.672 204.702C308.591 205.205 309.31 205.933 309.83 206.886C310.35 207.839 310.61 208.957 310.61 210.24V211.176H300.236C300.288 212.545 300.73 213.62 301.562 214.4C302.394 215.163 303.434 215.544 304.682 215.544C305.774 215.544 306.615 215.293 307.204 214.79C307.794 214.287 308.244 213.689 308.556 212.996L310.324 213.854C310.064 214.391 309.7 214.929 309.232 215.466C308.782 216.003 308.184 216.454 307.438 216.818C306.71 217.182 305.774 217.364 304.63 217.364ZM300.262 209.486H308.53C308.461 208.307 308.054 207.389 307.308 206.73C306.58 206.071 305.644 205.742 304.5 205.742C303.339 205.742 302.386 206.071 301.64 206.73C300.895 207.389 300.436 208.307 300.262 209.486ZM314.193 217V204.286H316.195V206.444H316.559C316.836 205.837 317.304 205.291 317.963 204.806C318.639 204.303 319.627 204.052 320.927 204.052C321.88 204.052 322.73 204.251 323.475 204.65C324.238 205.049 324.844 205.638 325.295 206.418C325.746 207.198 325.971 208.16 325.971 209.304V217H323.917V209.46C323.917 208.195 323.596 207.276 322.955 206.704C322.331 206.132 321.482 205.846 320.407 205.846C319.176 205.846 318.171 206.245 317.391 207.042C316.628 207.839 316.247 209.027 316.247 210.604V217H314.193ZM341.938 217.364C340.361 217.364 339.026 217 337.934 216.272C336.86 215.544 336.21 214.391 335.984 212.814L337.934 212.372C338.073 213.204 338.333 213.863 338.714 214.348C339.096 214.816 339.564 215.154 340.118 215.362C340.69 215.553 341.297 215.648 341.938 215.648C342.892 215.648 343.646 215.457 344.2 215.076C344.755 214.695 345.032 214.183 345.032 213.542C345.032 212.883 344.764 212.424 344.226 212.164C343.706 211.887 342.987 211.661 342.068 211.488L341.002 211.306C340.188 211.167 339.442 210.951 338.766 210.656C338.09 210.361 337.553 209.963 337.154 209.46C336.756 208.957 336.556 208.325 336.556 207.562C336.556 206.418 336.998 205.525 337.882 204.884C338.766 204.243 339.936 203.922 341.392 203.922C342.831 203.922 343.992 204.251 344.876 204.91C345.778 205.551 346.358 206.461 346.618 207.64L344.694 208.134C344.538 207.215 344.166 206.574 343.576 206.21C342.987 205.829 342.259 205.638 341.392 205.638C340.526 205.638 339.841 205.803 339.338 206.132C338.836 206.444 338.584 206.912 338.584 207.536C338.584 208.143 338.818 208.593 339.286 208.888C339.772 209.165 340.413 209.373 341.21 209.512L342.276 209.694C343.178 209.85 343.984 210.067 344.694 210.344C345.422 210.604 345.994 210.985 346.41 211.488C346.844 211.991 347.06 212.649 347.06 213.464C347.06 214.712 346.592 215.674 345.656 216.35C344.738 217.026 343.498 217.364 341.938 217.364ZM350.527 217V198.8H352.581V206.314H352.945C353.118 205.933 353.378 205.577 353.725 205.248C354.089 204.901 354.548 204.615 355.103 204.39C355.675 204.165 356.394 204.052 357.261 204.052C358.214 204.052 359.064 204.26 359.809 204.676C360.572 205.075 361.178 205.664 361.629 206.444C362.08 207.207 362.305 208.16 362.305 209.304V217H360.251V209.46C360.251 208.195 359.93 207.276 359.289 206.704C358.665 206.132 357.816 205.846 356.741 205.846C355.51 205.846 354.505 206.245 353.725 207.042C352.962 207.839 352.581 209.027 352.581 210.604V217H350.527ZM372.296 217.364C371.014 217.364 369.887 217.095 368.916 216.558C367.946 216.003 367.192 215.232 366.654 214.244C366.117 213.256 365.848 212.112 365.848 210.812V210.5C365.848 209.183 366.117 208.03 366.654 207.042C367.192 206.054 367.937 205.291 368.89 204.754C369.844 204.199 370.936 203.922 372.166 203.922C373.362 203.922 374.42 204.182 375.338 204.702C376.257 205.205 376.976 205.933 377.496 206.886C378.016 207.839 378.276 208.957 378.276 210.24V211.176H367.902C367.954 212.545 368.396 213.62 369.228 214.4C370.06 215.163 371.1 215.544 372.348 215.544C373.44 215.544 374.281 215.293 374.87 214.79C375.46 214.287 375.91 213.689 376.222 212.996L377.99 213.854C377.73 214.391 377.366 214.929 376.898 215.466C376.448 216.003 375.85 216.454 375.104 216.818C374.376 217.182 373.44 217.364 372.296 217.364ZM367.928 209.486H376.196C376.127 208.307 375.72 207.389 374.974 206.73C374.246 206.071 373.31 205.742 372.166 205.742C371.005 205.742 370.052 206.071 369.306 206.73C368.561 207.389 368.102 208.307 367.928 209.486ZM388.459 217V198.8H395.427C396.519 198.8 397.49 199.017 398.339 199.45C399.206 199.866 399.89 200.464 400.393 201.244C400.896 202.024 401.147 202.969 401.147 204.078V204.416C401.147 205.508 400.887 206.453 400.367 207.25C399.864 208.03 399.18 208.628 398.313 209.044C397.446 209.46 396.484 209.668 395.427 209.668H390.643V217H388.459ZM390.643 207.692H395.193C396.354 207.692 397.273 207.406 397.949 206.834C398.625 206.245 398.963 205.421 398.963 204.364V204.104C398.963 203.047 398.625 202.232 397.949 201.66C397.29 201.071 396.372 200.776 395.193 200.776H390.643V207.692ZM409.014 217.234C408.095 217.234 407.246 217.035 406.466 216.636C405.703 216.237 405.097 215.648 404.646 214.868C404.213 214.071 403.996 213.109 403.996 211.982V204.286H406.05V211.826C406.05 213.091 406.362 214.01 406.986 214.582C407.627 215.154 408.485 215.44 409.56 215.44C410.773 215.44 411.77 215.041 412.55 214.244C413.33 213.447 413.72 212.259 413.72 210.682V204.286H415.774V217H413.772V214.842H413.408C413.131 215.449 412.654 216.003 411.978 216.506C411.302 216.991 410.314 217.234 409.014 217.234ZM420.072 217V204.286H422.074V205.846H422.438C422.663 205.291 423.01 204.884 423.478 204.624C423.946 204.364 424.561 204.234 425.324 204.234H426.832V206.106H425.194C424.275 206.106 423.53 206.366 422.958 206.886C422.403 207.389 422.126 208.177 422.126 209.252V217H420.072ZM429.873 217V204.286H431.875V205.846H432.239C432.464 205.291 432.811 204.884 433.279 204.624C433.747 204.364 434.362 204.234 435.125 204.234H436.633V206.106H434.995C434.076 206.106 433.331 206.366 432.759 206.886C432.204 207.389 431.927 208.177 431.927 209.252V217H429.873ZM439.674 217V204.286H441.676V205.846H442.04C442.265 205.291 442.612 204.884 443.08 204.624C443.548 204.364 444.163 204.234 444.926 204.234H446.434V206.106H444.796C443.877 206.106 443.132 206.366 442.56 206.886C442.005 207.389 441.728 208.177 441.728 209.252V217H439.674ZM449.474 217V204.286H451.476V205.846H451.84C452.066 205.291 452.412 204.884 452.88 204.624C453.348 204.364 453.964 204.234 454.726 204.234H456.234V206.106H454.596C453.678 206.106 452.932 206.366 452.36 206.886C451.806 207.389 451.528 208.177 451.528 209.252V217H449.474ZM459.275 217V204.286H461.277V205.846H461.641C461.867 205.291 462.213 204.884 462.681 204.624C463.149 204.364 463.765 204.234 464.527 204.234H466.035V206.106H464.397C463.479 206.106 462.733 206.366 462.161 206.886C461.607 207.389 461.329 208.177 461.329 209.252V217H459.275ZM468.544 217.364C468.041 217.364 467.616 217.199 467.27 216.87C466.94 216.541 466.776 216.116 466.776 215.596C466.776 215.076 466.94 214.651 467.27 214.322C467.616 213.993 468.041 213.828 468.544 213.828C469.064 213.828 469.488 213.993 469.818 214.322C470.147 214.651 470.312 215.076 470.312 215.596C470.312 216.116 470.147 216.541 469.818 216.87C469.488 217.199 469.064 217.364 468.544 217.364ZM475.12 217.364C474.617 217.364 474.192 217.199 473.846 216.87C473.516 216.541 473.352 216.116 473.352 215.596C473.352 215.076 473.516 214.651 473.846 214.322C474.192 213.993 474.617 213.828 475.12 213.828C475.64 213.828 476.064 213.993 476.394 214.322C476.723 214.651 476.888 215.076 476.888 215.596C476.888 216.116 476.723 216.541 476.394 216.87C476.064 217.199 475.64 217.364 475.12 217.364ZM481.696 217.364C481.193 217.364 480.769 217.199 480.422 216.87C480.093 216.541 479.928 216.116 479.928 215.596C479.928 215.076 480.093 214.651 480.422 214.322C480.769 213.993 481.193 213.828 481.696 213.828C482.216 213.828 482.641 213.993 482.97 214.322C483.299 214.651 483.464 215.076 483.464 215.596C483.464 216.116 483.299 216.541 482.97 216.87C482.641 217.199 482.216 217.364 481.696 217.364ZM488.272 217.364C487.769 217.364 487.345 217.199 486.998 216.87C486.669 216.541 486.504 216.116 486.504 215.596C486.504 215.076 486.669 214.651 486.998 214.322C487.345 213.993 487.769 213.828 488.272 213.828C488.792 213.828 489.217 213.993 489.546 214.322C489.875 214.651 490.04 215.076 490.04 215.596C490.04 216.116 489.875 216.541 489.546 216.87C489.217 217.199 488.792 217.364 488.272 217.364ZM494.848 217.364C494.346 217.364 493.921 217.199 493.574 216.87C493.245 216.541 493.08 216.116 493.08 215.596C493.08 215.076 493.245 214.651 493.574 214.322C493.921 213.993 494.346 213.828 494.848 213.828C495.368 213.828 495.793 213.993 496.122 214.322C496.452 214.651 496.616 215.076 496.616 215.596C496.616 216.116 496.452 216.541 496.122 216.87C495.793 217.199 495.368 217.364 494.848 217.364Z" fill="white"/>
</svg>
